<?xml version="1.0" standalone="no"?>
<!DOCTYPE svg PUBLIC "-//W3C//DTD SVG 20010904//EN"
 "http://www.w3.org/TR/2001/REC-SVG-20010904/DTD/svg10.dtd">
<svg version="1.0" xmlns="http://www.w3.org/2000/svg"
 width="96.000000pt" height="96.000000pt" viewBox="0 0 96.000000 96.000000"
 preserveAspectRatio="xMidYMid meet">
<metadata>
Created by potrace 1.11, written by Peter Selinger 2001-2013
</metadata>
<g transform="translate(0.000000,96.000000) scale(0.100000,-0.100000)"
fill="#000000" stroke="none">
<path d="M724 941 c-35 -21 -74 -67 -74 -87 0 -11 -39 -14 -209 -14 l-209 0
-54 -58 c-61 -66 -117 -167 -150 -268 -18 -55 -22 -93 -23 -189 0 -145 6 -172
42 -181 33 -9 57 19 47 56 -13 49 -11 184 3 249 19 85 72 193 125 258 l43 52
186 0 186 1 24 -37 c72 -111 203 -112 277 -3 31 46 27 122 -9 174 -42 62 -143
85 -205 47z m110 -72 c35 -16 52 -61 36 -98 -24 -60 -112 -63 -139 -5 -20 45
-10 77 34 102 25 15 38 15 69 1z"/>
<path d="M302 665 c-17 -19 -42 -54 -56 -77 -32 -55 -70 -173 -63 -193 6 -13
42 -15 276 -15 148 0 272 3 275 8 9 15 -15 109 -45 170 -17 35 -48 81 -68 102
l-38 40 -125 0 -126 0 -30 -35z"/>
<path d="M186 311 c-5 -8 -4 -22 10 -86 15 -71 103 -209 139 -219 11 -3 72 -6
136 -6 l117 0 35 40 c43 47 79 116 101 191 28 94 42 89 -264 89 -148 0 -271
-4 -274 -9z"/>
</g>
</svg>
